{
  "accessors": [
    {
      "bufferView": 2,
      "componentType": 5126,
      "count": 604,
      "max": [
        36.482383728027344,
        1.5731592178344727,
        36.48237228393555
      ],
      "min": [
        -36.48240661621094,
        -2.8609776496887207,
        -36.48240280151367
      ],
      "type": "VEC3"
    },
    {
      "bufferView": 2,
      "byteOffset": 7248,
      "componentType": 5126,
      "count": 604,
      "max": [
        0.9997488856315613,
        1.0,
        0.9997488260269165
      ],
      "min": [
        -0.9997488856315613,
        -8.418705021995265e-08,
        -0.9997488856315613
      ],
      "type": "VEC3"
    },
    {
      "bufferView": 1,
      "componentType": 5126,
      "count": 604,
      "max": [
        0.9397010803222656,
        0.9980079531669617
      ],
      "min": [
        0.0018756508361548185,
        0.0019920319318771362
      ],
      "type": "VEC2"
    },
    {
      "bufferView": 0,
      "componentType": 5125,
      "count": 1020,
      "type": "SCALAR"
    },
    {
      "bufferView": 2,
      "byteOffset": 14496,
      "componentType": 5126,
      "count": 20157,
      "max": [
        14.679760932922363,
        66.0008316040039,
        14.530929565429688
      ],
      "min": [
        -13.182626724243164,
        0.7052409648895264,
        -13.669281959533691
      ],
      "type": "VEC3"
    },
    {
      "bufferView": 2,
      "byteOffset": 256380,
      "componentType": 5126,
      "count": 20157,
      "max": [
        0.9999921917915344,
        1.0,
        0.999993085861206
      ],
      "min": [
        -0.9999922513961792,
        -1.0,
        -0.9999929666519165
      ],
      "type": "VEC3"
    },
    {
      "bufferView": 1,
      "byteOffset": 4832,
      "componentType": 5126,
      "count": 20157,
      "max": [
        0.9480683207511902,
        0.9980080127716064
      ],
      "min": [
        0.0018923520110547543,
        0.00199203216470778
      ],
      "type": "VEC2"
    },
    {
      "bufferView": 0,
      "byteOffset": 4080,
      "componentType": 5125,
      "count": 76695,
      "type": "SCALAR"
    }
  ],
  "asset": {
    "extras": {
      "author": "talhataram (https://sketchfab.com/talhataram)",
      "license": "CC-BY-4.0 (http://creativecommons.org/licenses/by/4.0/)",
      "source": "https://sketchfab.com/3d-models/minar-e-pakistan-eb3a6e9b06a34b30a8e101c6631040a8",
      "title": "Minar-e-pakistan"
    },
    "generator": "Sketchfab-13.74.0",
    "version": "2.0"
  },
  "bufferViews": [
    {
      "buffer": 0,
      "byteLength": 310860,
      "name": "floatBufferViews",
      "target": 34963
    },
    {
      "buffer": 0,
      "byteLength": 166088,
      "byteOffset": 310860,
      "byteStride": 8,
      "name": "floatBufferViews",
      "target": 34962
    },
    {
      "buffer": 0,
      "byteLength": 498264,
      "byteOffset": 476948,
      "byteStride": 12,
      "name": "floatBufferViews",
      "target": 34962
    }
  ],
  "buffers": [
    {
      "byteLength": 975212,
      "uri": "scene.bin"
    }
  ],
  "images": [
    {
      "uri": "textures/blinn1_baseColor.png"
    },
    {
      "uri": "textures/lambert4_baseColor.jpeg"
    }
  ],
  "materials": [
    {
      "doubleSided": true,
      "name": "blinn1",
      "pbrMetallicRoughness": {
        "baseColorTexture": {
          "index": 0
        },
        "metallicFactor": 0.5277951850477297,
        "roughnessFactor": 0.9608888508222018
      }
    },
    {
      "doubleSided": true,
      "name": "lambert4",
      "pbrMetallicRoughness": {
        "baseColorTexture": {
          "index": 1
        },
        "metallicFactor": 0.44261786411783677,
        "roughnessFactor": 0.6
      }
    }
  ],
  "meshes": [
    {
      "name": "pCylinder18_blinn1_0",
      "primitives": [
        {
          "attributes": {
            "NORMAL": 1,
            "POSITION": 0,
            "TEXCOORD_0": 2
          },
          "indices": 3,
          "material": 0,
          "mode": 4
        }
      ]
    },
    {
      "name": "pCylinder22_lambert4_0",
      "primitives": [
        {
          "attributes": {
            "NORMAL": 5,
            "POSITION": 4,
            "TEXCOORD_0": 6
          },
          "indices": 7,
          "material": 1,
          "mode": 4
        }
      ]
    }
  ],
  "nodes": [
    {
      "children": [
        1
      ],
      "matrix": [
        1.0,
        0.0,
        0.0,
        0.0,
        0.0,
        2.220446049250313e-16,
        -1.0,
        0.0,
        0.0,
        1.0,
        2.220446049250313e-16,
        0.0,
        0.0,
        0.0,
        0.0,
        1.0
      ],
      "name": "Sketchfab_model"
    },
    {
      "children": [
        2
      ],
      "matrix": [
        0.009999999776482582,
        0.0,
        0.0,
        0.0,
        0.0,
        0.0,
        0.009999999776482582,
        0.0,
        0.0,
        -0.009999999776482582,
        0.0,
        0.0,
        0.0,
        0.0,
        0.0,
        1.0
      ],
      "name": "a84481f724b94a5dbc33e1eaa263950b.fbx"
    },
    {
      "children": [
        3
      ],
      "name": "RootNode"
    },
    {
      "children": [
        4,
        6
      ],
      "matrix": [
        1.0230605602264404,
        0.0,
        0.0,
        0.0,
        0.0,
        1.0230605602264404,
        0.0,
        0.0,
        0.0,
        0.0,
        1.0230605602264404,
        0.0,
        -21.35158920288086,
        0.0,
        10.52364730834961,
        1.0
      ],
      "name": "group1"
    },
    {
      "children": [
        5
      ],
      "name": "pCylinder18"
    },
    {
      "mesh": 0,
      "name": "pCylinder18_blinn1_0"
    },
    {
      "children": [
        7
      ],
      "name": "pCylinder22"
    },
    {
      "mesh": 1,
      "name": "pCylinder22_lambert4_0"
    }
  ],
  "samplers": [
    {
      "magFilter": 9729,
      "minFilter": 9987,
      "wrapS": 10497,
      "wrapT": 10497
    }
  ],
  "scene": 0,
  "scenes": [
    {
      "name": "Sketchfab_Scene",
      "nodes": [
        0
      ]
    }
  ],
  "textures": [
    {
      "sampler": 0,
      "source": 0
    },
    {
      "sampler": 0,
      "source": 1
    }
  ]
}
